# xmcd
#
# Track frame offsets:
#	150
#	23092
#	41572
#	64370
#	68939
#	89120
#	108571
#	130052
#	146282
#	163230
#	182732
#
# Disc length: 2669 seconds
#
# Revision: 1
# Processed by: cddbd v1.5.2PL0 Copyright (c) Steve Scherf et al.
# Submitted via: audiograbber 1.83.01
#
DISCID=a10a6b0b
DTITLE=Valentine - Soul Salvation
DYEAR=2009
DGENRE=AOR
TTITLE0=Dream on the way
TTITLE1=Pickin´ up the pieces
TTITLE2=Soul Salvation
TTITLE3=Interlude
TTITLE4=Love Song
TTITLE5=One more chance
TTITLE6=Pages
TTITLE7=Every time you go away
TTITLE8=I´ll be the one
TTITLE9=Wait
TTITLE10=Love is all we´re after
EXTD=
EXTT0=
EXTT1=
EXTT2=
EXTT3=
EXTT4=
EXTT5=
EXTT6=
EXTT7=
EXTT8=
EXTT9=
EXTT10=
PLAYORDER=
